HIERARCHY
ROOT Root
{
	OFFSET 0.00000 0.00000 0.00000
	CHANNELS 6 Xposition Yposition Zposition Zrotation Xrotation Yrotation
	JOINT Hips
	{
		OFFSET 0 0 0	
		CHANNELS 3 Zrotation Xrotation Yrotation
		JOINT Spine1
		{
			OFFSET 0 4 0	
			CHANNELS 3 Zrotation Xrotation Yrotation
			JOINT Spine2
			{
				OFFSET 0 19.4 0	
				CHANNELS 3 Zrotation Xrotation Yrotation
				JOINT Spine3
				{
					OFFSET 0 16.6 0	
					CHANNELS 3 Zrotation Xrotation Yrotation
					JOINT LeftCollar
					{
						OFFSET 0 10 0	
						CHANNELS 3 Zrotation Xrotation Yrotation
						JOINT LeftArm
						{
							OFFSET 15.6 -2 0	
							CHANNELS 3 Zrotation Xrotation Yrotation
							JOINT LeftForeArm
							{
								OFFSET 2.6 -25.5 0	
								CHANNELS 3 Zrotation Xrotation Yrotation
								JOINT LeftHand
								{
									OFFSET 0.65 -31.1 0	
									CHANNELS 3 Zrotation Xrotation Yrotation
									End Site
									{
										OFFSET 0 -15 0
									}
								}
							}
						}
					}
					JOINT RightCollar
					{
						OFFSET 0 10 0	
						CHANNELS 3 Zrotation Xrotation Yrotation
						JOINT RightArm
						{
							OFFSET -15.6 -2 0	
							CHANNELS 3 Zrotation Xrotation Yrotation
							JOINT RightForeArm
							{
								OFFSET -2.6 -25.5 0	
								CHANNELS 3 Zrotation Xrotation Yrotation
								JOINT RightHand
								{
									OFFSET -0.65 -31.1 0	
									CHANNELS 3 Zrotation Xrotation Yrotation
									End Site
									{
										OFFSET 0 -15 0
									}
								}
							}
						}
					}
					JOINT Neck
					{
						OFFSET 0 10 0	
						CHANNELS 3 Zrotation Xrotation Yrotation
						JOINT Head
						{
							OFFSET 0 12.7 0	
							CHANNELS 3 Zrotation Xrotation Yrotation
							End Site
							{
								OFFSET 0 12.7 1.56
							}
						}
					}
				}
			}
		}
	}
	JOINT LeftHip
	{
		OFFSET 0 0 0	
		CHANNELS 3 Zrotation Xrotation Yrotation
		JOINT LeftUpLeg
		{
			OFFSET 8.8 -2 0	
			CHANNELS 3 Zrotation Xrotation Yrotation
			JOINT LeftLeg
			{
				OFFSET 0 -42.2 0	
				CHANNELS 3 Zrotation Xrotation Yrotation
				JOINT LeftFoot
				{
					OFFSET 0 -44.3 0	
					CHANNELS 3 Zrotation Xrotation Yrotation
					JOINT LeftFootFront
					{
						OFFSET 0 -4 10.47	
						CHANNELS 3 Zrotation Xrotation Yrotation
						End Site
						{
							OFFSET 0 -3.45 9.31
						}
					}
				}
			}
		}
	}
	JOINT RightHip
	{
		OFFSET 0 0 0	
		CHANNELS 3 Zrotation Xrotation Yrotation
		JOINT RightUpLeg
		{
			OFFSET -8.8 -2 0	
			CHANNELS 3 Zrotation Xrotation Yrotation
			JOINT RightLeg
			{
				OFFSET 0 -42.2 0	
				CHANNELS 3 Zrotation Xrotation Yrotation
				JOINT RightFoot
				{
					OFFSET 0 -44.3 0	
					CHANNELS 3 Zrotation Xrotation Yrotation
					JOINT RightFootFront
					{
						OFFSET 0 -4 10.47	
						CHANNELS 3 Zrotation Xrotation Yrotation
						End Site
						{
							OFFSET 0 -3.45 9.31
						}
					}
				}
			}
		}
	}
}
MOTION
Frames: 21
Frame Time: 0.025
0 95.92 0 -0 0 -0 -0.035288 -0.46323 -1.7049 -0.075673 0.084675 0.26644 -0.1238 0.13812 0.43525 -0.05293 0.05931 0.1865 -0 0 -0 -0.10275 -0.22199 9.0364 -0.16454 0.3418 -9.368 0 0 -1.3601e-08 -0 0 -0 0.36528 -0.46442 -1.0773 -0.013206 0.2041 1.1788 0 0 -4.0907e-09 0.037072 -0.34541 -0.63304 0.037072 -0.34541 -0.63304 -0.035288 -0.46323 -1.7049 0.060414 0.0055533 -14.923 -0.080155 0.14321 16.138 -0 0 -0 -0 0 -0 -0.035288 -0.46323 -1.7049 0.10655 0.18826 1.4975 0.017642 0.20411 0.3884 -0 0 -0 -0 0 -0 
0 95.918 0 -0 0 -0 -0.03665 -0.4565 -1.6986 -0.073904 0.08701 0.26474 -0.12092 0.14194 0.43247 -0.05169 0.060943 0.18531 -0 0 -0 -0.088297 -0.20912 9.0164 -0.18637 0.31596 -9.3487 -0 0 4.2105e-08 -0 0 -0 0.36344 -0.47318 -1.0813 -0.014003 0.2318 1.1747 -0 0 1.6493e-08 0.039164 -0.35663 -0.63288 0.039164 -0.35663 -0.63288 -0.03665 -0.4565 -1.6986 0.050151 -0.010881 -14.917 -0.067064 0.15727 16.13 -0 0 -0 -0 0 -0 -0.03665 -0.4565 -1.6986 0.10631 0.18717 1.4965 0.021637 0.19168 0.37941 -0 0 -0 -0 0 -0 
0 95.915 0 -0 0 -0 -0.038769 -0.45024 -1.6901 -0.070894 0.090435 0.26334 -0.11601 0.14754 0.43017 -0.049582 0.063339 0.18432 -0 0 -0 -0.072548 -0.18682 8.9836 -0.21564 0.27598 -9.321 -0 0 5.2058e-08 -0 0 -0 0.35393 -0.4868 -1.0905 -0.010274 0.2773 1.1697 -0 0 2.0036e-08 0.039831 -0.37029 -0.63184 0.039831 -0.37029 -0.63184 -0.038769 -0.45024 -1.6901 0.034882 -0.030925 -14.912 -0.048562 0.17981 16.122 -0 0 -0 -0 0 -0 -0.038769 -0.45024 -1.6901 0.10691 0.18726 1.4901 0.025675 0.17631 0.36741 -0 0 -0 -0 0 -0 
0 95.912 0 -0 0 -0 -0.041844 -0.44418 -1.6816 -0.067387 0.093358 0.26269 -0.11029 0.15232 0.42912 -0.047126 0.065383 0.18387 -0 0 -0 -0.057141 -0.16152 8.9439 -0.24533 0.23286 -9.2883 -0 0 3.6738e-08 -0 0 -0 0.33836 -0.5011 -1.1003 -0.0004415 0.32707 1.1609 -0 0 4.4294e-09 0.039457 -0.38341 -0.62852 0.039457 -0.38341 -0.62852 -0.041844 -0.44418 -1.6816 0.018648 -0.051918 -14.918 -0.028826 0.20696 16.127 -0 0 -0 -0 0 -0 -0.041844 -0.44418 -1.6816 0.10764 0.18341 1.4798 0.030625 0.16678 0.34989 -0 0 -0 -0 0 -0 
0 95.912 0 -0 0 -0 -0.04732 -0.4352 -1.6749 -0.062723 0.096669 0.26172 -0.10268 0.15774 0.42753 -0.04386 0.067698 0.18319 -0 0 -0 -0.044549 -0.14124 8.9001 -0.27449 0.18896 -9.2448 0 0 -3.7728e-08 -0 0 -0 0.31876 -0.51815 -1.094 0.01549 0.3718 1.1373 0 0 -1.4148e-08 0.041343 -0.39796 -0.62202 0.041343 -0.39796 -0.62202 -0.04732 -0.4352 -1.6749 0.0026383 -0.07564 -14.927 -0.0067935 0.23786 16.136 -0 0 -0 -0 0 -0 -0.04732 -0.4352 -1.6749 0.10902 0.17278 1.4691 0.038695 0.16629 0.33264 -0 0 -0 -0 0 -0 
0 95.913 0 -0 0 -0 -0.054751 -0.4286 -1.6716 -0.056469 0.10174 0.25976 -0.092471 0.16604 0.42433 -0.03948 0.071244 0.18182 -0 0 -0 -0.037414 -0.12482 8.8654 -0.30306 0.1446 -9.2115 0 0 -2.9703e-09 -0 0 -0 0.29556 -0.53331 -1.0641 0.028761 0.40504 1.1033 -0 0 2.061e-08 0.043681 -0.41252 -0.61408 0.043681 -0.41252 -0.61408 -0.054751 -0.4286 -1.6716 -0.011976 -0.099669 -14.928 0.013669 0.27626 16.133 -0 0 -0 -0 0 -0 -0.054751 -0.4286 -1.6716 0.11233 0.16378 1.4646 0.047673 0.17216 0.32825 -0 0 -0 -0 0 -0 
0 95.914 0 -0 0 -0 -0.060737 -0.42651 -1.669 -0.049785 0.10589 0.25651 -0.081561 0.17284 0.41902 -0.0348 0.074146 0.17955 -0 0 -0 -0.033515 -0.10235 8.8432 -0.32712 0.10468 -9.2019 -0 0 1.7457e-08 -0 0 -0 0.26642 -0.54056 -1.0332 0.042041 0.43845 1.0803 0 0 -1.2311e-08 0.041094 -0.41949 -0.60753 0.041094 -0.41949 -0.60753 -0.060737 -0.42651 -1.669 -0.024277 -0.12316 -14.924 0.026923 0.32264 16.122 -0 0 -0 -0 0 -0 -0.060737 -0.42651 -1.669 0.11443 0.16316 1.4642 0.05635 0.17401 0.33171 -0 0 -0 -0 0 -0 
0 95.915 0 -0 0 -0 -0.063955 -0.42301 -1.6638 -0.043117 0.1064 0.25231 -0.070667 0.17368 0.41214 -0.030133 0.074497 0.17661 -0 0 -0 -0.03092 -0.066913 8.8147 -0.34514 0.064099 -9.1894 -0 0 5.2162e-08 -0 0 -0 0.23421 -0.53811 -1.0231 0.057682 0.47699 1.0731 -0 0 3.4002e-09 0.033325 -0.41526 -0.60337 0.033325 -0.41526 -0.60337 -0.063955 -0.42301 -1.6638 -0.035888 -0.14544 -14.923 0.037536 0.36618 16.113 -0 0 -0 -0 0 -0 -0.063955 -0.42301 -1.6638 0.11387 0.16811 1.4534 0.064759 0.16847 0.33719 -0 0 -0 -0 0 -0 
0 95.917 0 -0 0 -0 -0.065429 -0.41445 -1.6578 -0.036745 0.10595 0.24812 -0.060255 0.17297 0.4053 -0.025674 0.074181 0.17368 -0 0 -0 -0.02253 -0.0369 8.7872 -0.37147 0.026993 -9.1762 -0 0 3.8666e-08 -0 0 -0 0.2069 -0.53561 -1.0273 0.069114 0.5145 1.0627 0 0 -2.414e-08 0.025344 -0.40779 -0.59979 0.025344 -0.40779 -0.59979 -0.065429 -0.41445 -1.6578 -0.048555 -0.16593 -14.923 0.04892 0.4034 16.11 -0 0 -0 -0 0 -0 -0.065429 -0.41445 -1.6578 0.11181 0.16964 1.4329 0.073606 0.16319 0.34287 -0 0 -0 -0 0 -0 
0 95.918 0 -0 0 -0 -0.06676 -0.40316 -1.654 -0.03222 0.10916 0.24593 -0.052869 0.17823 0.40171 -0.022505 0.07643 0.17214 -0 0 -0 -0.0044837 -0.024068 8.7595 -0.40871 -0.0063808 -9.1668 -0 0 4.9869e-08 -0 0 -0 0.19038 -0.54785 -1.0374 0.072028 0.54988 1.0462 -0 0 1.25e-08 0.023208 -0.40777 -0.59667 0.023208 -0.40777 -0.59667 -0.06676 -0.40316 -1.654 -0.05944 -0.18806 -14.921 0.059434 0.43859 16.106 -0 0 -0 -0 0 -0 -0.06676 -0.40316 -1.654 0.11036 0.16934 1.4095 0.081884 0.15553 0.34484 -0 0 -0 -0 0 -0 
0 95.917 0 -0 0 -0 -0.068773 -0.39224 -1.6528 -0.031098 0.11489 0.24606 -0.051048 0.18759 0.40193 -0.021717 0.080439 0.17223 -0 0 -0 0.018646 -0.012643 8.718 -0.4407 -0.042749 -9.1482 -0 0 4.9817e-08 -0 0 -0 0.18461 -0.57114 -1.0595 0.071367 0.58634 1.0359 -0 0 5.3374e-09 0.031027 -0.41228 -0.59491 0.031027 -0.41228 -0.59491 -0.068773 -0.39224 -1.6528 -0.068144 -0.20854 -14.92 0.071103 0.46893 16.098 -0 0 -0 -0 0 -0 -0.068773 -0.39224 -1.6528 0.10802 0.17302 1.3909 0.091137 0.13792 0.33578 -0 0 -0 -0 0 -0 
0 95.915 0 -0 0 -0 -0.071969 -0.38264 -1.655 -0.031472 0.11852 0.24768 -0.051669 0.19352 0.40457 -0.021976 0.082981 0.17337 -0 0 -0 0.040123 0.012806 8.67 -0.46229 -0.081786 -9.1263 -0 0 2.8973e-08 -0 0 -0 0.17912 -0.58932 -1.0933 0.078488 0.6233 1.0301 0 0 -2.3218e-08 0.043037 -0.41031 -0.5956 0.043037 -0.41031 -0.5956 -0.071969 -0.38264 -1.655 -0.07726 -0.21635 -14.916 0.086957 0.48918 16.095 -0 0 -0 -0 0 -0 -0.071969 -0.38264 -1.655 0.10317 0.18185 1.3889 0.10339 0.11507 0.31243 -0 0 -0 -0 0 -0 
0 95.915 0 -0 0 -0 -0.076735 -0.3724 -1.6583 -0.031391 0.11979 0.24805 -0.05154 0.19559 0.40518 -0.021919 0.083868 0.17363 -0 0 -0 0.057694 0.046938 8.6263 -0.48026 -0.12286 -9.1066 0 0 -4.2053e-08 -0 0 -0 0.17066 -0.60079 -1.1171 0.093321 0.6584 1.0292 -0 0 1.1516e-08 0.05137 -0.40249 -0.59869 0.05137 -0.40249 -0.59869 -0.076735 -0.3724 -1.6583 -0.087311 -0.21658 -14.908 0.10694 0.50143 16.09 -0 0 -0 -0 0 -0 -0.076735 -0.3724 -1.6583 0.098381 0.1939 1.3927 0.11666 0.090942 0.28759 -0 0 -0 -0 0 -0 
0 95.915 0 -0 0 -0 -0.082471 -0.36069 -1.6612 -0.031218 0.12165 0.24678 -0.051261 0.19863 0.4031 -0.021798 0.085172 0.17274 -0 0 -0 0.077529 0.073008 8.5816 -0.49932 -0.16175 -9.0813 -0 0 3.6164e-08 -0 0 -0 0.16399 -0.61565 -1.1042 0.10649 0.69454 1.0076 -0 0 1.1712e-08 0.055408 -0.39763 -0.60478 0.055408 -0.39763 -0.60478 -0.082471 -0.36069 -1.6612 -0.095762 -0.22503 -14.908 0.12659 0.51318 16.087 -0 0 -0 -0 0 -0 -0.082471 -0.36069 -1.6612 0.096418 0.20049 1.3916 0.12812 0.072837 0.27297 -0 0 -0 -0 0 -0 
0 95.916 0 -0 0 -0 -0.088339 -0.34727 -1.6656 -0.031611 0.12488 0.2458 -0.051908 0.20389 0.40151 -0.022071 0.087427 0.17205 -0 0 -0 0.10541 0.087784 8.5306 -0.52087 -0.19622 -9.0446 0 0 -4.9765e-08 -0 0 -0 0.16026 -0.64058 -1.0616 0.11726 0.73774 0.95574 -0 0 4.7954e-08 0.05831 -0.40007 -0.61248 0.05831 -0.40007 -0.61248 -0.088339 -0.34727 -1.6656 -0.10139 -0.24609 -14.911 0.14125 0.5304 16.092 -0 0 -0 -0 0 -0 -0.088339 -0.34727 -1.6656 0.09908 0.19658 1.3812 0.13572 0.065793 0.27788 -0 0 -0 -0 0 -0 
0 95.917 0 -0 0 -0 -0.093316 -0.33574 -1.6711 -0.031509 0.12806 0.24487 -0.051748 0.20909 0.4 -0.021999 0.089654 0.1714 -0 0 -0 0.13033 0.1021 8.4812 -0.54017 -0.22779 -9.0113 0 0 -5.8885e-09 -0 0 -0 0.15369 -0.66983 -1.0183 0.13116 0.78633 0.90274 6.6701e-09 1.2846e-18 2.2069e-08 0.058467 -0.4046 -0.61516 0.058467 -0.4046 -0.61516 -0.093316 -0.33574 -1.6711 -0.10707 -0.27208 -14.913 0.15265 0.55393 16.101 -0 0 -0 -0 0 -0 -0.093316 -0.33574 -1.6711 0.10384 0.19144 1.369 0.14038 0.063787 0.29482 -0 0 -0 -0 0 -0 
0 95.918 0 -0 0 -0 -0.098981 -0.32551 -1.6757 -0.029494 0.12896 0.24313 -0.048457 0.21058 0.39715 -0.020588 0.090288 0.17019 -0 0 -0 0.1504 0.1198 8.4455 -0.55942 -0.25369 -9.0006 0 0 -3.976e-08 -0 0 -0 0.13833 -0.69672 -0.98864 0.1528 0.83633 0.86149 -0 0 4.8228e-08 0.052341 -0.4042 -0.60668 0.052341 -0.4042 -0.60668 -0.098981 -0.32551 -1.6757 -0.1128 -0.2958 -14.916 0.16546 0.5774 16.105 -0 0 -0 -0 0 -0 -0.098981 -0.32551 -1.6757 0.10862 0.1895 1.3616 0.14531 0.058874 0.31003 -0 0 -0 -0 0 -0 
0 95.919 0 -0 0 -0 -0.10497 -0.31264 -1.6782 -0.027082 0.12657 0.24127 -0.044509 0.20666 0.39411 -0.018901 0.088608 0.16888 -0 0 -0 0.1753 0.14245 8.4243 -0.58614 -0.27641 -9.0054 0 0 -1.7613e-08 -0 0 -0 0.12034 -0.71831 -0.96379 0.17761 0.88377 0.81426 -0 0 4.4815e-08 0.0429 -0.39786 -0.58988 0.0429 -0.39786 -0.58988 -0.10497 -0.31264 -1.6782 -0.11764 -0.31712 -14.912 0.17917 0.59578 16.103 -0 0 -0 -0 0 -0 -0.10497 -0.31264 -1.6782 0.11257 0.18898 1.3523 0.15015 0.048371 0.32325 -0 0 -0 -0 0 -0 
0 95.92 0 -0 0 -0 -0.10882 -0.29893 -1.6795 -0.024345 0.12291 0.23825 -0.040028 0.2007 0.38916 -0.016988 0.08605 0.16677 -0 0 -0 0.19773 0.1693 8.4148 -0.61595 -0.29991 -9.0066 -0 0 4.643e-08 -0 0 -0 0.10433 -0.7338 -0.9268 0.19587 0.92536 0.75372 -0 0 1.704e-08 0.03139 -0.39089 -0.56892 0.03139 -0.39089 -0.56892 -0.10882 -0.29893 -1.6795 -0.12308 -0.33731 -14.899 0.19183 0.6127 16.094 -0 0 -0 -0 0 -0 -0.10882 -0.29893 -1.6795 0.11475 0.19075 1.3333 0.15432 0.035087 0.34077 -0 0 -0 -0 0 -0 
0 95.921 0 -0 0 -0 -0.11004 -0.28506 -1.6785 -0.021492 0.12065 0.23391 -0.035358 0.19701 0.38207 -0.014992 0.084464 0.16373 -0 0 -0 0.21431 0.19505 8.4033 -0.64227 -0.32608 -8.9944 -0 0 3.9447e-08 -0 0 -0 0.091381 -0.7519 -0.88931 0.20631 0.96313 0.70108 0 0 -2.6055e-10 0.020082 -0.38972 -0.55098 0.020082 -0.38972 -0.55098 -0.11004 -0.28506 -1.6785 -0.12811 -0.36326 -14.881 0.19989 0.63676 16.078 -0 0 -0 -0 0 -0 -0.11004 -0.28506 -1.6785 0.11516 0.18696 1.3045 0.15887 0.028904 0.364 -0 0 -0 -0 0 -0 
0 95.923 0 -0 0 -0 -0.10991 -0.2726 -1.6738 -0.019044 0.11975 0.22929 -0.031354 0.19556 0.37452 -0.013281 0.083836 0.1605 -0 0 -0 0.22803 0.22125 8.3864 -0.66328 -0.35414 -8.9759 0 0 -1.2715e-08 -0 0 -0 0.080365 -0.77631 -0.86664 0.21214 0.99963 0.66993 0 0 -3.9004e-08 0.014655 -0.39289 -0.54193 0.014655 -0.39289 -0.54193 -0.10991 -0.2726 -1.6738 -0.13114 -0.39209 -14.871 0.20333 0.66489 16.067 -0 0 -0 -0 0 -0 -0.10991 -0.2726 -1.6738 0.11284 0.17666 1.2723 0.16485 0.032083 0.38785 -0 0 -0 -0 0 -0 
